<svg id="Layer_1" data-name="Layer 1" xmlns="http://www.w3.org/2000/svg" viewBox="0 0 869.102 633.686">
  <g id="Layer_8" data-name="Layer 8">
    <path d="M71.347,633.686c-25.851.028-48.936-18.767-57.7-46.977-18.8-60.73-29.082-166.954,44.505-288.636C139.519,163.528,226.361,42.9,428.289,27.257c178.133-9.85,228.328,236.306,355.138,320.9,122.633,81.812,108.349,277.83-9.277,285.521Z" fill="#f3f5fd"></path>
  </g>
  <g>
    <path d="M773.57,633.686H728.247c-7.878-10.362-21.691-31.266-12.763-40.194,4.06-4.051,8.524-.2,12.679,6.715-1.426-13.542,0-26.483,9.424-30.262,8.581-3.433,12.417,6.939,13.9,20.856,4.22-7.915,9.781-13.485,17.031-13.045,10.371.619,7.868,14.452,1.8,29.766,4.605-3.5,9.416-5.224,14.1-3.686C794.239,607.053,785.067,620.829,773.57,633.686Z" fill="#8ddbe0"></path>
    <g>
      <rect x="631.398" y="543.297" width="81.454" height="87.116" transform="translate(1344.251 1173.71) rotate(-180)" fill="#d7e8f4"></rect>
      <rect x="606.166" y="543.297" width="81.454" height="87.116" transform="translate(1293.786 1173.71) rotate(-180)" fill="#fff"></rect>
      <g>
        <polygon points="629.898 564.064 629.898 581.065 629.898 633.686 719.051 633.686 719.051 581.065 719.051 564.064 629.898 564.064" fill="#c1d8ed"></polygon>
        <rect x="602.85" y="564.064" width="89.154" height="69.622" fill="#dee8f5"></rect>
        <rect x="602.85" y="564.064" width="89.154" height="5.219" fill="#c1d8ed"></rect>
        <rect x="635.492" y="578.048" width="23.87" height="10.454" rx="2.257" fill="#fff"></rect>
      </g>
      <g>
        <rect x="630.4" y="537.237" width="89.154" height="17.001" transform="translate(1282.69 1165.502) rotate(-173.394)" fill="#c1d8ed"></rect>
        <rect x="603.532" y="534.126" width="89.154" height="17.001" transform="translate(1229.49 1156.208) rotate(-173.394)" fill="#dee8f5"></rect>
      </g>
      <path d="M635.415,556.493H606.166a10.511,10.511,0,0,0-3.316,4.992S612.943,558.406,635.415,556.493Z" fill="#dee8f5"></path>
    </g>
  </g>
  <g>
    <rect x="278.461" width="377.426" height="489.613" fill="#dee8f5"></rect>
    <rect x="381.846" y="275.985" width="232.937" height="7.012" fill="#c1d8ed"></rect>
    <rect x="381.846" y="350.202" width="232.937" height="7.012" fill="#c1d8ed"></rect>
    <rect x="381.846" y="424.419" width="232.937" height="7.012" fill="#c1d8ed"></rect>
    <path d="M333.613,300.1a3.829,3.829,0,0,1-2.625-1.042l-13.122-12.382a3.824,3.824,0,1,1,5.249-5.562l10.286,9.706,22.35-24.628a3.824,3.824,0,1,1,5.664,5.138l-24.971,27.516a3.821,3.821,0,0,1-2.683,1.251Z" fill="#fff"></path>
    <g>
      <path d="M333.613,373.338a3.824,3.824,0,0,1-2.625-1.042l-13.122-12.382a3.824,3.824,0,1,1,5.249-5.562l10.286,9.706,22.35-24.628a3.824,3.824,0,1,1,5.664,5.138l-24.971,27.516a3.817,3.817,0,0,1-2.683,1.251Z" fill="#fff"></path>
      <path d="M333.613,447.556a3.829,3.829,0,0,1-2.625-1.042l-13.122-12.383a3.824,3.824,0,0,1,5.249-5.563l10.286,9.708,22.35-24.63a3.824,3.824,0,1,1,5.664,5.139L336.445,446.3a3.826,3.826,0,0,1-2.684,1.251Z" fill="#fff"></path>
    </g>
    <g>
      <rect x="307.04" y="26.975" width="320.268" height="207.087" fill="#f3f5fd"></rect>
      <g>
        <path d="M604.5,211.426H328.939a1.166,1.166,0,0,1-1.166-1.166V51.714a1.166,1.166,0,0,1,2.332,0V209.1H604.5a1.166,1.166,0,1,1,0,2.331Z" fill="#c1d8ed"></path>
        <path d="M338.064,199.772a1.166,1.166,0,0,1-.768-2.045l73.908-64.5a1.167,1.167,0,0,1,1.516-.015l22.114,18.523,62.223-45.072a1.165,1.165,0,0,1,1.361-.006l36.439,25.986,59.782-48.283a1.166,1.166,0,1,1,1.466,1.814h0l-60.472,48.839a1.165,1.165,0,0,1-1.409.042l-36.478-26.016-62.28,45.115a1.167,1.167,0,0,1-1.433-.051l-22.046-18.466L338.83,199.481A1.163,1.163,0,0,1,338.064,199.772Z" fill="#c1d8ed"></path>
        <circle cx="593.091" cy="86.947" r="5.441" fill="#c1d8ed"></circle>
        <g opacity="0.77">
          <g>
            <rect x="328.158" y="64.824" width="276.339" height="0.777" fill="#c1d8ed"></rect>
            <rect x="328.158" y="88.791" width="276.339" height="0.777" fill="#c1d8ed"></rect>
            <rect x="328.158" y="112.757" width="276.339" height="0.777" fill="#c1d8ed"></rect>
            <rect x="328.158" y="136.724" width="276.339" height="0.777" fill="#c1d8ed"></rect>
            <rect x="328.158" y="160.691" width="276.339" height="0.777" fill="#c1d8ed"></rect>
            <rect x="328.158" y="184.657" width="276.339" height="0.777" fill="#c1d8ed"></rect>
          </g>
        </g>
      </g>
    </g>
  </g>
  <g>
    <g>
      <path d="M178.665,622.866l-20.854-2.479c.939-7.893,2-17.374,2.072-18.928-.005.1,0,.181,0,.245h21C180.879,602.333,180.879,604.249,178.665,622.866Z" fill="#E98862"></path>
      <path d="M94.989,625.377l-21-.068s.07-21.685.07-23.605h21C95.059,603.63,94.989,625.377,94.989,625.377Z" fill="#E98862"></path>
      <path d="M149.417,616.236l37-.63c-1.538-38.963-1.8-83.529-2.213-123.855a234.051,234.051,0,0,0-2.26-29.873c-5.952-42.723-9.835-85.2-17.848-127.678l-.267.079-.782-5.33-76.077-4.7-3.96,49.705S73.1,545.906,68.576,615.043l36.869,3.116c6.643-67.786,16.923-166.556,23.246-237.767,7.261,34.669,12.2,70.568,18.514,104.94C148.469,528.358,149.535,573.338,149.417,616.236Z" fill="#262626"></path>
      <path d="M120.517,633.5a4.108,4.108,0,0,0,4.077-4.427h0a4.11,4.11,0,0,0-2.659-3.529l-24.443-8.187a3.461,3.461,0,0,0-2.872.32,19.112,19.112,0,0,1-11.468,3.4,17.035,17.035,0,0,1-8.82-3.222,1.546,1.546,0,0,0-2.527,1.2v11.952a2.678,2.678,0,0,0,2.688,2.678Z" fill="#c1d8ed"></path>
      <path d="M204.251,633.5a4.107,4.107,0,0,0,4.076-4.427h0a4.108,4.108,0,0,0-2.658-3.529l-24.443-8.187a3.461,3.461,0,0,0-2.872.32,19.112,19.112,0,0,1-11.468,3.4,17.038,17.038,0,0,1-8.821-3.222,1.546,1.546,0,0,0-2.527,1.2v11.952a2.678,2.678,0,0,0,2.689,2.678Z" fill="#c1d8ed"></path>
    </g>
    <g>
      <path d="M111.152,220.7s7.732-4.1,6.006-25.156l15.976-2.963s-1.795,18.879,6.287,24.873Z" fill="#E98862"></path>
      <g opacity="0.15">
        <path d="M136.148,213.505l-13.273-10.154,10.425-.108A28.735,28.735,0,0,0,136.148,213.505Z"></path>
      </g>
      <path d="M108.093,187.377c1.106,6.388,4.592,12.438,10.227,14.5,6.69,2.449,11.645,2.615,19.358,2.615,10.525,0,10.177-10.977,10.473-22.038.3-11.106-.587-23.019-4.747-26.889-8.3-7.724-32.673-2.832-35.637,10.088C106.234,172.337,107.04,181.3,108.093,187.377Z" fill="#E98862"></path>
      <path d="M153.792,161.988s4.31-.963,3.13-5.261c-.782-2.851-4.434-2.218-4.434-2.218s3.458-.633,3.458-3.652c0-1.9-1.462-5.124-5.871-3.282-5.174,2.161-11.075,1.883-15.561,1.129a51.71,51.71,0,0,0-7.708-1.088l-.013,0v0a29.662,29.662,0,0,0-8.814,1.179c-8.02,2.4-20.157,9.59-17.577,25.893,2.88,18.194,11.418,25.152,15.174,27.384a1.712,1.712,0,0,0,2.518-.957c1.065-3.41,2.9-11.99,2.387-29.682,24.652-1.209,31.745-1.576,31.745-1.576s5.8.218,5.8-4.022S153.792,161.988,153.792,161.988Z" fill="#0f1011"></path>
      <g>
        <circle cx="133.111" cy="181.007" r="1.449" fill="#0f1011"></circle>
        <circle cx="144.543" cy="180.07" r="1.449" fill="#0f1011"></circle>
        <path d="M147.053,176.982h-.008l-3.839-.049a.681.681,0,0,1-.672-.689.691.691,0,0,1,.69-.672l3.838.048a.681.681,0,0,1-.009,1.362Z" fill="#0f1011"></path>
        <path d="M129.984,178.382a.682.682,0,0,1-.159-1.344l3.785-.91a.681.681,0,0,1,.318,1.324l-3.784.911A.728.728,0,0,1,129.984,178.382Z" fill="#0f1011"></path>
      </g>
      <path d="M125.574,184.553a6.143,6.143,0,0,1-12.245,1,6.042,6.042,0,0,1,5.621-6.625C123.328,178.79,125.3,181.171,125.574,184.553Z" fill="#E98862"></path>
      <g opacity="0.15">
        <path d="M139.543,189.044a.5.5,0,0,1-.147-.978l2.948-.905-2.062-4.59a.5.5,0,0,1,.912-.41l2.294,5.107a.5.5,0,0,1-.309.683l-3.489,1.071A.5.5,0,0,1,139.543,189.044Z"></path>
      </g>
      <path d="M133.782,192.419s5.348.564,9.1-.746c0,0-.029,3.522-4.262,3.869S133.782,192.419,133.782,192.419Z" fill="#fff"></path>
    </g>
    <g>
      <g>
        <path d="M284.22,276.508s8.208-3.989,14.374-2.458,3.276,4.184-1.21,5.128-14.343,2.479-14.343,2.479" fill="#E98862"></path>
        <path d="M289.014,276.321s15.218-1.6,15.377,2.062c0,0,.666,11.3-1.4,13.042-3.121,2.636-18.58.572-18.58.572Z" fill="#E98862"></path>
      </g>
      <path d="M248.784,294.986H189.306a10.5,10.5,0,0,1-8.841-4.837l-37.582-58.668,17.682-11.327,34.485,53.832h53.734Z" fill="#367CFF"></path>
      <path d="M168.471,330.773c-4.189,9.63-86.519,13.63-87.62-3.31-.7-10.78,8.8-20.19,8.8-41.2s-19.33-47.84-3.58-63.59c4.57-4.57,12.461-7.52,22.08-7.53.72,5.61,34.781,5.63,35.04.13,1.3.02,2.31.04,2.94.07,33.18,1.43,18.6,39.19,18.28,66.93C164.021,314.733,172.791,320.853,168.471,330.773Z" fill="#367CFF"></path>
      <path d="M143.191,215.273c-.259,5.5-3.25,13.59-12.48,14.2-12.3.81-21.84-8.72-22.56-14.33h.031C120.291,215.143,136.131,215.163,143.191,215.273Z" fill="#E98862"></path>
      <g>
        <circle cx="221.258" cy="280.368" r="78.379" fill="#c1d8ed"></circle>
        <circle cx="221.258" cy="280.368" r="62.876" fill="#fff"></circle>
        <circle cx="221.258" cy="280.368" r="47.058" fill="#c1d8ed"></circle>
        <circle cx="221.258" cy="280.368" r="31.288" fill="#fff"></circle>
        <circle cx="221.258" cy="280.368" r="16.007" fill="#c1d8ed"></circle>
        <g>
          <g>
            <polygon points="277.497 225.395 284.135 226.171 275.295 235.01 268.657 234.235 277.497 225.395" fill="#0cbc8b"></polygon>
            <polygon points="276.873 218.91 277.649 225.548 268.81 234.387 268.034 227.749 276.873 218.91" fill="#0cbc8b"></polygon>
          </g>
          <path d="M251.569,214.956h0a1.569,1.569,0,0,1,1.569,1.569v73.218a0,0,0,0,1,0,0H250a0,0,0,0,1,0,0V216.525A1.569,1.569,0,0,1,251.569,214.956Z" transform="translate(251.017 608.674) rotate(-135)" fill="#0cbc8b"></path>
        </g>
      </g>
      <path d="M302.986,291.429a3.472,3.472,0,0,1-.93.528c-1.793.37-6.315-.712-7.04-1.966-1.18-2.041-.448-9.415.594-12.091.976-2.5,5.842-1.453,6.481-1.335a.333.333,0,0,0,.062.017c1.326.364,2.2.932,2.236,1.805C304.389,278.387,305.059,289.677,302.986,291.429Z" fill="#E98862"></path>
      <g>
        <path d="M170.506,298.246s2.409-13.154,11.714-10.865c5.872,1.445,22.934-1.134,23.194,6.406.225,6.542-15.8,8.286-21.1,7.74C179.557,301.039,170.506,298.246,170.506,298.246Z" fill="#E98862"></path>
        <path d="M178.813,287.236s13.842-2.042,16.935-.728c2.738,1.164-4,4.8-4,4.8Z" fill="#E98862"></path>
      </g>
      <path d="M183.24,305.551l-61.879-1.888a10.9,10.9,0,0,1-9.323-5.834L81.487,239.575,100.8,229.448l27.594,52.615,55.515,1.694Z" fill="#367CFF"></path>
    </g>
  </g>
</svg>