<svg width="100" height="146" viewBox="0 0 100 146" fill="none" xmlns="http://www.w3.org/2000/svg">
<circle cx="50" cy="96" r="48" stroke="black" stroke-width="4"/>
<mask id="path-2-inside-1_210_39" fill="white">
<path fill-rule="evenodd" clip-rule="evenodd" d="M93.3484 11.1179C95.1416 20.9794 92.9649 30.2462 86.3621 36.7179C77.6 45.3061 63.1758 46.882 48.6515 42.1811C46.8583 32.3196 49.035 23.0528 55.6378 16.5811C64.3999 7.99285 78.8241 6.41697 93.3484 11.1179Z"/>
</mask>
<path d="M93.3484 11.1179L97.2839 10.4023L96.8559 8.04883L94.5801 7.31225L93.3484 11.1179ZM86.3621 36.7179L83.5622 33.8613L83.5622 33.8613L86.3621 36.7179ZM48.6515 42.1811L44.716 42.8967L45.144 45.2502L47.4198 45.9867L48.6515 42.1811ZM55.6378 16.5811L58.4377 19.4377L55.6378 16.5811ZM89.4129 11.8335C91.0262 20.7055 89.009 28.5226 83.5622 33.8613L89.1621 39.5746C96.9207 31.9699 99.257 21.2532 97.2839 10.4023L89.4129 11.8335ZM83.5622 33.8613C76.2593 41.0193 63.612 42.8189 49.8832 38.3755L47.4198 45.9867C62.7396 50.9451 78.9407 49.593 89.1621 39.5746L83.5622 33.8613ZM52.5869 41.4655C50.9737 32.5935 52.9909 24.7764 58.4377 19.4377L52.8378 13.7244C45.0792 21.3291 42.7429 32.0458 44.716 42.8967L52.5869 41.4655ZM58.4377 19.4377C65.7406 12.2797 78.3879 10.4801 92.1167 14.9235L94.5801 7.31225C79.2603 2.35386 63.0592 3.70596 52.8378 13.7244L58.4377 19.4377Z" fill="black" mask="url(#path-2-inside-1_210_39)"/>
<mask id="path-4-inside-2_210_39" fill="white">
<path fill-rule="evenodd" clip-rule="evenodd" d="M6.7158 11.2378C4.92259 21.0993 7.09935 30.3661 13.7021 36.8378C22.4642 45.4261 36.8884 47.0019 51.4127 42.301C53.2059 32.4395 51.0292 23.1727 44.4264 16.701C35.6643 8.11277 21.2401 6.53688 6.7158 11.2378Z"/>
</mask>
<path d="M6.7158 11.2378L2.78033 10.5222L3.20828 8.16874L5.48407 7.43216L6.7158 11.2378ZM13.7021 36.8378L16.502 33.9812L16.502 33.9812L13.7021 36.8378ZM51.4127 42.301L55.3482 43.0166L54.9202 45.3701L52.6445 46.1067L51.4127 42.301ZM44.4264 16.701L41.6265 19.5576L44.4264 16.701ZM10.6513 11.9534C9.03797 20.8255 11.0552 28.6425 16.502 33.9812L10.9022 39.6945C3.1435 32.0898 0.807201 21.3731 2.78033 10.5222L10.6513 11.9534ZM16.502 33.9812C23.8049 41.1392 36.4522 42.9388 50.181 38.4954L52.6445 46.1067C37.3247 51.065 21.1235 49.7129 10.9022 39.6945L16.502 33.9812ZM47.4773 41.5854C49.0906 32.7134 47.0733 24.8963 41.6265 19.5576L47.2264 13.8444C54.985 21.449 57.3213 32.1657 55.3482 43.0166L47.4773 41.5854ZM41.6265 19.5576C34.3236 12.3997 21.6763 10.6 7.94753 15.0434L5.48407 7.43216C20.8039 2.47377 37.005 3.82587 47.2264 13.8444L41.6265 19.5576Z" fill="black" mask="url(#path-4-inside-2_210_39)"/>
<path fill-rule="evenodd" clip-rule="evenodd" d="M50 56C27.9086 56 10 73.9086 10 96H14C14 76.1177 30.1177 60 50 60V56Z" fill="black"/>
<line x1="49" y1="58" x2="50" y2="58" stroke="black" stroke-width="4" stroke-linecap="round"/>
<line x1="50" y1="46.1199" x2="50" y2="39.1199" stroke="black" stroke-width="4" stroke-linecap="round"/>
<line x1="12" y1="96" x2="12" y2="95" stroke="black" stroke-width="4" stroke-linecap="round"/>
</svg>
