<svg width="419" height="132" viewBox="0 0 419 132" fill="none" xmlns="http://www.w3.org/2000/svg">
<path d="M134.733 55.0016L122.459 47.9719C128.596 41.0537 136.853 37.8178 145.445 37.8178C161.96 37.8178 168.655 46.856 168.655 55.3364V93.8327H152.14V89.9272C149.574 92.6052 144.999 94.6137 139.866 94.6137C124.802 94.6137 119 87.9187 119 77.6531C119 66.0484 128.373 58.2375 143.548 58.2375H152.14C152.14 54.1089 149.016 51.4309 144.329 51.4309C139.531 51.4309 137.188 52.3236 134.733 55.0016ZM152.14 75.6446V70.7349H142.433C138.081 70.7349 134.845 73.7476 135.514 77.9878C135.961 81.0006 138.639 82.228 142.433 82.228C149.685 82.228 152.14 78.0994 152.14 75.6446ZM234.978 66.3831C234.978 82.6743 224.155 94.7253 207.975 94.7253C204.628 94.7253 198.044 92.7168 195.478 90.1504V119.72H178.963V38.7104H195.478V42.6159C197.821 39.8263 202.061 37.9293 206.859 37.9293C223.039 37.9293 234.978 50.0919 234.978 66.3831ZM218.352 66.3831C218.352 57.568 212.662 50.4267 205.743 50.4267C201.503 50.4267 197.375 53.551 195.143 58.0144C194.139 60.246 193.358 63.3704 193.358 66.3831C193.358 69.5075 194.027 72.297 195.143 74.6403C197.486 79.2152 201.392 82.228 205.743 82.228C212.662 82.228 218.352 75.0866 218.352 66.3831ZM278.204 39.4915L275.972 51.8773C271.844 50.0919 271.063 50.4267 269.166 50.4267C262.471 50.4267 258.565 53.9974 258.565 62.8125V93.8327H242.051V38.7104H258.565V43.6201C260.685 39.8263 266.488 37.9293 270.17 37.9293C273.629 37.9293 275.638 38.0409 278.204 39.4915ZM296.658 38.7104V93.8327H280.144V38.7104H296.658ZM297.105 22.8656C297.105 27.5521 293.311 31.2343 288.289 31.2343C283.491 31.2343 279.586 27.5521 279.586 22.8656C279.586 18.2907 283.491 14.72 288.289 14.72C293.311 14.72 297.105 18.2907 297.105 22.8656ZM344.459 74.0824L356.064 84.5712C349.815 91.4894 341.669 94.7253 332.966 94.7253C316.898 94.7253 303.954 82.6743 303.954 66.3831C303.954 50.0919 316.898 37.9293 332.966 37.9293C341.669 37.9293 349.815 41.1653 356.064 48.0834L344.459 58.5723C342.004 52.8815 336.648 51.5425 332.966 51.5425C326.159 51.5425 320.469 57.568 320.469 66.3831C320.469 75.0866 326.159 81.1121 332.966 81.1121C336.648 81.1121 342.116 80.1079 344.459 74.0824ZM389.135 51.5425C382.329 51.5425 376.638 57.568 376.638 66.3831C376.638 75.0866 382.329 81.1121 389.135 81.1121C396.054 81.1121 401.744 75.0866 401.744 66.3831C401.744 57.568 396.054 51.5425 389.135 51.5425ZM389.135 37.9293C405.315 37.9293 418.259 50.0919 418.259 66.3831C418.259 82.6743 405.315 94.7253 389.135 94.7253C373.067 94.7253 360.124 82.6743 360.124 66.3831C360.124 50.0919 373.067 37.9293 389.135 37.9293Z" fill="white"/>
<circle cx="45" cy="86.4" r="43" stroke="white" stroke-width="4"/>
<circle cx="44.7955" cy="86.1954" r="42.7955" stroke="white" stroke-width="4"/>
<path fill-rule="evenodd" clip-rule="evenodd" d="M19.9382 59.6656C25.7434 53.8802 33.2555 50.1991 41.2888 49.1135C42.9369 48.8908 44.607 48.7773 46.2888 48.7773V53.7773C37.3612 53.7773 29.2788 57.3959 23.4283 63.2464C17.5778 69.0969 13.9592 77.1793 13.9592 86.1068H8.95921C8.95921 84.425 9.0727 82.755 9.29543 81.1068C10.3811 73.0735 14.0621 65.5615 19.8475 59.7562C19.8626 59.7411 19.8777 59.726 19.8928 59.7109C19.9079 59.6957 19.923 59.6806 19.9382 59.6656Z" fill="white"/>
<mask id="path-5-inside-1_212_83" fill="white">
<path fill-rule="evenodd" clip-rule="evenodd" d="M84.0131 10.006C85.6271 18.8814 83.668 27.2216 77.7255 33.0461C69.8396 40.7755 56.858 42.1938 43.7862 37.9631C42.1723 29.0877 44.1314 20.7475 50.0738 14.923C57.9597 7.19362 70.9414 5.77529 84.0131 10.006Z"/>
</mask>
<path d="M84.0131 10.006L87.9486 9.29038L87.5207 6.93694L85.2449 6.20037L84.0131 10.006ZM77.7255 33.0461L80.5254 35.9028L80.5254 35.9028L77.7255 33.0461ZM43.7862 37.9631L39.8507 38.6787L40.2787 41.0322L42.5545 41.7687L43.7862 37.9631ZM50.0738 14.923L52.8738 17.7796L52.8738 17.7796L50.0738 14.923ZM80.0777 10.7216C81.5117 18.6076 79.7121 25.4979 74.9256 30.1895L80.5254 35.9028C87.6238 28.9452 89.7425 19.1552 87.9486 9.29038L80.0777 10.7216ZM74.9256 30.1895C68.4989 36.4886 57.2942 38.1307 45.0179 34.1574L42.5545 41.7687C56.4218 46.2569 71.1804 45.0624 80.5254 35.9028L74.9256 30.1895ZM47.7217 37.2475C46.2877 29.3615 48.0872 22.4712 52.8738 17.7796L47.2739 12.0663C40.1755 19.0239 38.0569 28.8139 39.8507 38.6787L47.7217 37.2475ZM52.8738 17.7796C59.3004 11.4805 70.5052 9.8384 82.7814 13.8117L85.2449 6.20037C71.3776 1.71218 56.619 2.90674 47.2739 12.0663L52.8738 17.7796Z" fill="white" mask="url(#path-5-inside-1_212_83)"/>
<mask id="path-7-inside-2_212_83" fill="white">
<path fill-rule="evenodd" clip-rule="evenodd" d="M6.04403 10.1141C4.43015 18.9894 6.38924 27.3295 12.3317 33.1541C20.2176 40.8835 33.1995 42.3018 46.2714 38.0709C47.8853 29.1956 45.9262 20.8554 39.9838 15.0309C32.0978 7.30146 19.1159 5.88318 6.04403 10.1141Z"/>
</mask>
<path d="M6.04403 10.1141L2.10856 9.39846L2.5365 7.04503L4.81229 6.30845L6.04403 10.1141ZM12.3317 33.1541L9.53176 36.0107L9.53176 36.0107L12.3317 33.1541ZM46.2714 38.0709L50.2069 38.7865L49.779 41.1399L47.5032 41.8765L46.2714 38.0709ZM39.9838 15.0309L42.7837 12.1743L42.7837 12.1743L39.9838 15.0309ZM9.97949 10.8297C8.54554 18.7156 10.3451 25.6059 15.1316 30.2974L9.53176 36.0107C2.4334 29.0532 0.314765 19.2632 2.10856 9.39846L9.97949 10.8297ZM15.1316 30.2974C21.5584 36.5966 32.7633 38.2387 45.0397 34.2652L47.5032 41.8765C33.6357 46.3649 18.8769 45.1704 9.53176 36.0107L15.1316 30.2974ZM42.336 37.3553C43.7699 29.4694 41.9704 22.5791 37.1838 17.8875L42.7837 12.1743C49.8821 19.1317 52.0007 28.9217 50.2069 38.7865L42.336 37.3553ZM37.1838 17.8875C30.7571 11.5884 19.5522 9.94629 7.27577 13.9197L4.81229 6.30845C18.6797 1.82008 33.4385 3.01456 42.7837 12.1743L37.1838 17.8875Z" fill="white" mask="url(#path-7-inside-2_212_83)"/>
<line x1="44.7999" y1="41.3079" x2="44.7999" y2="35.4079" stroke="white" stroke-width="4" stroke-linecap="round"/>
<circle cx="45.2932" cy="51.2659" r="2.48864" fill="white"/>
<circle cx="11.4478" cy="86.1068" r="2.48864" fill="white"/>
</svg>
