<svg width="90" height="132" viewBox="0 0 90 132" fill="none" xmlns="http://www.w3.org/2000/svg">
<circle cx="45" cy="86.4" r="43" stroke="#3D74E8" stroke-width="4"/>
<circle cx="44.7955" cy="86.1955" r="42.7955" stroke="#3D74E8" stroke-width="4"/>
<path fill-rule="evenodd" clip-rule="evenodd" d="M19.9382 59.6656C25.7434 53.8802 33.2555 50.1991 41.2888 49.1135C42.9369 48.8908 44.607 48.7773 46.2888 48.7773V53.7773C37.3612 53.7773 29.2788 57.3959 23.4283 63.2464C17.5778 69.0969 13.9592 77.1793 13.9592 86.1068H8.95923C8.95923 84.425 9.07272 82.755 9.29545 81.1068C10.3811 73.0735 14.0621 65.5615 19.8475 59.7562C19.8626 59.7411 19.8777 59.726 19.8928 59.7109C19.9079 59.6957 19.923 59.6806 19.9382 59.6656Z" fill="#3D74E8"/>
<mask id="path-4-inside-1_212_168" fill="white">
<path fill-rule="evenodd" clip-rule="evenodd" d="M84.0132 10.006C85.6271 18.8814 83.668 27.2216 77.7255 33.0461C69.8397 40.7755 56.858 42.1938 43.7862 37.9631C42.1723 29.0877 44.1314 20.7475 50.0739 14.923C57.9597 7.19362 70.9414 5.77529 84.0132 10.006Z"/>
</mask>
<path d="M84.0132 10.006L87.9486 9.29038L87.5207 6.93694L85.2449 6.20037L84.0132 10.006ZM77.7255 33.0461L80.5255 35.9028L80.5255 35.9028L77.7255 33.0461ZM43.7862 37.9631L39.8508 38.6787L40.2787 41.0322L42.5545 41.7687L43.7862 37.9631ZM50.0739 14.923L52.8738 17.7796L52.8738 17.7796L50.0739 14.923ZM80.0777 10.7216C81.5117 18.6076 79.7122 25.4979 74.9256 30.1895L80.5255 35.9028C87.6239 28.9452 89.7425 19.1552 87.9486 9.29038L80.0777 10.7216ZM74.9256 30.1895C68.4989 36.4886 57.2942 38.1307 45.0179 34.1574L42.5545 41.7687C56.4218 46.2569 71.1804 45.0624 80.5255 35.9028L74.9256 30.1895ZM47.7217 37.2475C46.2877 29.3615 48.0872 22.4712 52.8738 17.7796L47.2739 12.0663C40.1755 19.0239 38.0569 28.8139 39.8508 38.6787L47.7217 37.2475ZM52.8738 17.7796C59.3004 11.4805 70.5052 9.8384 82.7815 13.8117L85.2449 6.20037C71.3776 1.71218 56.619 2.90674 47.2739 12.0663L52.8738 17.7796Z" fill="#3D74E8" mask="url(#path-4-inside-1_212_168)"/>
<mask id="path-6-inside-2_212_168" fill="white">
<path fill-rule="evenodd" clip-rule="evenodd" d="M6.04403 10.1141C4.43015 18.9894 6.38924 27.3295 12.3317 33.154C20.2176 40.8835 33.1995 42.3018 46.2714 38.0709C47.8853 29.1956 45.9262 20.8554 39.9838 15.0309C32.0978 7.30145 19.1159 5.88317 6.04403 10.1141Z"/>
</mask>
<path d="M6.04403 10.1141L2.10856 9.39844L2.5365 7.04502L4.81229 6.30843L6.04403 10.1141ZM12.3317 33.154L9.53176 36.0107L9.53176 36.0107L12.3317 33.154ZM46.2714 38.0709L50.2069 38.7865L49.779 41.1399L47.5032 41.8765L46.2714 38.0709ZM39.9838 15.0309L42.7837 12.1742L42.7837 12.1742L39.9838 15.0309ZM9.97949 10.8297C8.54554 18.7155 10.3451 25.6059 15.1316 30.2974L9.53176 36.0107C2.4334 29.0532 0.314765 19.2632 2.10856 9.39844L9.97949 10.8297ZM15.1316 30.2974C21.5584 36.5966 32.7633 38.2387 45.0397 34.2652L47.5032 41.8765C33.6357 46.3649 18.8769 45.1704 9.53176 36.0107L15.1316 30.2974ZM42.336 37.3552C43.7699 29.4694 41.9704 22.5791 37.1838 17.8875L42.7837 12.1742C49.8821 19.1317 52.0007 28.9217 50.2069 38.7865L42.336 37.3552ZM37.1838 17.8875C30.7571 11.5883 19.5522 9.94627 7.27577 13.9197L4.81229 6.30843C18.6797 1.82006 33.4385 3.01455 42.7837 12.1742L37.1838 17.8875Z" fill="#3D74E8" mask="url(#path-6-inside-2_212_168)"/>
<line x1="44.7999" y1="41.3079" x2="44.7999" y2="35.4079" stroke="#3D74E8" stroke-width="4" stroke-linecap="round"/>
<circle cx="45.2933" cy="51.2659" r="2.48864" fill="#3D74E8"/>
<circle cx="11.4479" cy="86.1068" r="2.48864" fill="#3D74E8"/>
</svg>
