<svg width="268.1054246941858" height="80" viewBox="0 0 268.1054246941858 80" class="css-1j8o68f">
<defs id="SvgjsDefs1456"></defs><g id="SvgjsG1457" featurekey="nRdZyp-0" transform="matrix(0.9998772740364075,0,0,0.9998772740364075,-22.27926507814831,-10.00195193174971)" fill="#f8d99b"><path xmlns="http://www.w3.org/2000/svg" d="M22.282,62.294c0,15.284,12.435,27.719,27.718,27.719s27.718-12.435,27.718-27.719c0-14.948-11.897-27.163-26.718-27.692  v-2.378c2.499,0.302,11.326,0.953,16.36-4.082c5.781-5.78,4.066-16.563,3.99-17.02c-0.07-0.422-0.4-0.752-0.822-0.822  c-0.456-0.077-11.238-1.792-17.021,3.99c-1.81,1.81-2.879,4.106-3.522,6.516c-0.643-2.409-1.712-4.706-3.523-6.516  c-5.783-5.783-16.564-4.068-17.021-3.99c-0.422,0.07-0.752,0.4-0.822,0.822c-0.076,0.456-1.791,11.239,3.99,17.02  c3.581,3.581,9.078,4.286,12.854,4.286c1.565,0,2.821-0.12,3.535-0.208v2.382C34.179,35.131,22.282,47.346,22.282,62.294z   M54.922,15.704c4.259-4.259,12.125-3.785,14.55-3.524c0.265,2.422,0.742,10.281-3.525,14.548  c-4.527,4.528-13.136,3.707-14.94,3.479C51.052,25.737,51.26,19.366,54.922,15.704z M75.718,62.294  c0,14.182-11.537,25.719-25.718,25.719S24.282,76.476,24.282,62.294c0-14.181,11.537-25.718,25.718-25.718  S75.718,48.113,75.718,62.294z M34.024,26.728c-4.258-4.257-3.787-12.123-3.524-14.548c2.426-0.264,10.291-0.733,14.549,3.524  c3.661,3.66,3.87,10.027,3.916,14.502C47.16,30.441,38.562,31.265,34.024,26.728z"></path><path xmlns="http://www.w3.org/2000/svg" d="M28.188,62.41c0,0.553,0.447,1,1,1s1-0.447,1-1c0-10.988,8.939-19.928,19.927-19.928c0.553,0,1-0.447,1-1s-0.447-1-1-1  C38.024,40.482,28.188,50.319,28.188,62.41z"></path></g><g id="SvgjsG1458" featurekey="Q4qmbg-0" transform="matrix(3.5069077014923096,0,0,3.5069077014923096,78.45695961832757,-13.410204518044821)" fill="#ffffff"><path d="M3.26 13.04 l-2.2 -1.26 c1.1 -1.24 2.58 -1.82 4.12 -1.82 c2.96 0 4.16 1.62 4.16 3.14 l0 6.9 l-2.96 0 l0 -0.7 c-0.46 0.48 -1.28 0.84 -2.2 0.84 c-2.7 0 -3.74 -1.2 -3.74 -3.04 c0 -2.08 1.68 -3.48 4.4 -3.48 l1.54 0 c0 -0.74 -0.56 -1.22 -1.4 -1.22 c-0.86 0 -1.28 0.16 -1.72 0.64 z M6.38 16.740000000000002 l0 -0.88 l-1.74 0 c-0.78 0 -1.36 0.54 -1.24 1.3 c0.08 0.54 0.56 0.76 1.24 0.76 c1.3 0 1.74 -0.74 1.74 -1.18 z M21.227708333333332 15.08 c0 2.92 -1.94 5.08 -4.84 5.08 c-0.6 0 -1.78 -0.36 -2.24 -0.82 l0 5.3 l-2.96 0 l0 -14.52 l2.96 0 l0 0.7 c0.42 -0.5 1.18 -0.84 2.04 -0.84 c2.9 0 5.04 2.18 5.04 5.1 z M18.247708333333332 15.08 c0 -1.58 -1.02 -2.86 -2.26 -2.86 c-0.76 0 -1.5 0.56 -1.9 1.36 c-0.18 0.4 -0.32 0.96 -0.32 1.5 c0 0.56 0.12 1.06 0.32 1.48 c0.42 0.82 1.12 1.36 1.9 1.36 c1.24 0 2.26 -1.28 2.26 -2.84 z M28.97541666666666 10.26 l-0.4 2.22 c-0.74 -0.32 -0.88 -0.26 -1.22 -0.26 c-1.2 0 -1.9 0.64 -1.9 2.22 l0 5.56 l-2.96 0 l0 -9.88 l2.96 0 l0 0.88 c0.38 -0.68 1.42 -1.02 2.08 -1.02 c0.62 0 0.98 0.02 1.44 0.28 z M32.28312499999999 10.12 l0 9.88 l-2.96 0 l0 -9.88 l2.96 0 z M32.36312499999999 7.279999999999999 c0 0.84 -0.68 1.5 -1.58 1.5 c-0.86 0 -1.56 -0.66 -1.56 -1.5 c0 -0.82 0.7 -1.46 1.56 -1.46 c0.9 0 1.58 0.64 1.58 1.46 z M40.85083333333332 16.46 l2.08 1.88 c-1.12 1.24 -2.58 1.82 -4.14 1.82 c-2.88 0 -5.2 -2.16 -5.2 -5.08 s2.32 -5.1 5.2 -5.1 c1.56 0 3.02 0.58 4.14 1.82 l-2.08 1.88 c-0.44 -1.02 -1.4 -1.26 -2.06 -1.26 c-1.22 0 -2.24 1.08 -2.24 2.66 c0 1.56 1.02 2.64 2.24 2.64 c0.66 0 1.64 -0.18 2.06 -1.26 z M48.85854166666665 12.42 c-1.22 0 -2.24 1.08 -2.24 2.66 c0 1.56 1.02 2.64 2.24 2.64 c1.24 0 2.26 -1.08 2.26 -2.64 c0 -1.58 -1.02 -2.66 -2.26 -2.66 z M48.85854166666665 9.98 c2.9 0 5.22 2.18 5.22 5.1 s-2.32 5.08 -5.22 5.08 c-2.88 0 -5.2 -2.16 -5.2 -5.08 s2.32 -5.1 5.2 -5.1 z"></path></g></svg>