<svg width="132" height="132" viewBox="0 0 132 132" fill="none" xmlns="http://www.w3.org/2000/svg">
<g clip-path="url(#clip0_631_313)">
<circle cx="66" cy="83.4" r="43" stroke="#3D74E8" stroke-width="4"/>
<circle cx="65.7955" cy="83.1955" r="42.7955" stroke="#3D74E8" stroke-width="4"/>
<path fill-rule="evenodd" clip-rule="evenodd" d="M40.9382 56.6655C46.7434 50.8801 54.2555 47.1991 62.2888 46.1134C63.9369 45.8907 65.607 45.7772 67.2888 45.7772V50.7772C58.3612 50.7772 50.2788 54.3958 44.4283 60.2463C38.5778 66.0968 34.9592 74.1792 34.9592 83.1068H29.9592C29.9592 81.425 30.0727 79.7549 30.2954 78.1068C31.3811 70.0735 35.0621 62.5614 40.8475 56.7562C40.8626 56.741 40.8777 56.7259 40.8928 56.7108C40.9079 56.6957 40.923 56.6806 40.9382 56.6655Z" fill="#3D74E8"/>
<mask id="path-4-inside-1_631_313" fill="white">
<path fill-rule="evenodd" clip-rule="evenodd" d="M105.013 7.00601C106.627 15.8814 104.668 24.2216 98.7255 30.0461C90.8397 37.7755 77.858 39.1938 64.7862 34.9631C63.1723 26.0877 65.1314 17.7475 71.0739 11.923C78.9597 4.19362 91.9414 2.77529 105.013 7.00601Z"/>
</mask>
<path d="M105.013 7.00601L108.949 6.29038L108.521 3.93694L106.245 3.20037L105.013 7.00601ZM98.7255 30.0461L101.525 32.9028L101.525 32.9028L98.7255 30.0461ZM64.7862 34.9631L60.8508 35.6787L61.2787 38.0322L63.5545 38.7687L64.7862 34.9631ZM71.0739 11.923L73.8738 14.7796L73.8738 14.7796L71.0739 11.923ZM101.078 7.72165C102.512 15.6076 100.712 22.4979 95.9256 27.1895L101.525 32.9028C108.624 25.9452 110.742 16.1552 108.949 6.29038L101.078 7.72165ZM95.9256 27.1895C89.4989 33.4886 78.2942 35.1307 66.0179 31.1574L63.5545 38.7687C77.4218 43.2569 92.1804 42.0624 101.525 32.9028L95.9256 27.1895ZM68.7217 34.2475C67.2877 26.3615 69.0872 19.4712 73.8738 14.7796L68.2739 9.06634C61.1755 16.0239 59.0569 25.8139 60.8508 35.6787L68.7217 34.2475ZM73.8738 14.7796C80.3004 8.4805 91.5052 6.8384 103.781 10.8117L106.245 3.20037C92.3776 -1.28782 77.619 -0.0932624 68.2739 9.06634L73.8738 14.7796Z" fill="#3D74E8" mask="url(#path-4-inside-1_631_313)"/>
<mask id="path-6-inside-2_631_313" fill="white">
<path fill-rule="evenodd" clip-rule="evenodd" d="M27.044 7.11406C25.4302 15.9894 27.3892 24.3295 33.3317 30.154C41.2176 37.8835 54.1995 39.3018 67.2714 35.0709C68.8853 26.1956 66.9262 17.8554 60.9838 12.0309C53.0978 4.30145 40.1159 2.88317 27.044 7.11406Z"/>
</mask>
<path d="M27.044 7.11406L23.1086 6.39844L23.5365 4.04502L25.8123 3.30843L27.044 7.11406ZM33.3317 30.154L30.5318 33.0107L30.5318 33.0107L33.3317 30.154ZM67.2714 35.0709L71.2069 35.7865L70.779 38.1399L68.5032 38.8765L67.2714 35.0709ZM60.9838 12.0309L63.7837 9.17425L63.7837 9.17425L60.9838 12.0309ZM30.9795 7.82968C29.5455 15.7155 31.3451 22.6059 36.1316 27.2974L30.5318 33.0107C23.4334 26.0532 21.3148 16.2632 23.1086 6.39844L30.9795 7.82968ZM36.1316 27.2974C42.5584 33.5966 53.7633 35.2387 66.0397 31.2652L68.5032 38.8765C54.6357 43.3649 39.8769 42.1704 30.5318 33.0107L36.1316 27.2974ZM63.336 34.3552C64.7699 26.4694 62.9704 19.5791 58.1838 14.8875L63.7837 9.17425C70.8821 16.1317 73.0007 25.9217 71.2069 35.7865L63.336 34.3552ZM58.1838 14.8875C51.7571 8.58834 40.5522 6.94627 28.2758 10.9197L25.8123 3.30843C39.6797 -1.17994 54.4385 0.0145487 63.7837 9.17425L58.1838 14.8875Z" fill="#3D74E8" mask="url(#path-6-inside-2_631_313)"/>
<line x1="65.7999" y1="38.3079" x2="65.7999" y2="32.4079" stroke="#3D74E8" stroke-width="4" stroke-linecap="round"/>
<circle cx="66.2933" cy="48.2659" r="2.48864" fill="#3D74E8"/>
<circle cx="32.4479" cy="83.1068" r="2.48864" fill="#3D74E8"/>
</g>
<defs>
<clipPath id="clip0_631_313">
<rect width="132" height="132" fill="white"/>
</clipPath>
</defs>
</svg>
