<svg id="Layer_1" data-name="Layer 1" xmlns="http://www.w3.org/2000/svg" viewBox="0 0 1034.726 674.562">
  <path d="M1034.726,674.562H0c11.338-28.913,32.272-53.441,61.792-60.718,43.177-10.63,88.87,18.6,131.951,7.609,24.476-6.237,43.745-24.415,63.993-39.509,76.388-56.952,181.069-73.785,271.459-43.64,47.248,15.749,90.3,43.291,138.7,55,62.586,15.147,128.037,2.586,192.4.516C922.979,591.806,1012.792,617.347,1034.726,674.562Z" fill="#f3f5fd"></path>
  <g>
    <rect x="245.168" y="25.826" width="594" height="409.043" fill="#dee8f5"></rect>
    <rect x="221.103" width="642.13" height="25.826" fill="#c1d8ed"></rect>
    <rect x="239.886" y="434.87" width="604.565" height="9.278" fill="#c1d8ed"></rect>
  </g>
  <g>
    <rect x="272.845" y="53.451" width="274.312" height="164.721" fill="#fff"></rect>
    <path d="M518.94,135.863a55.865,55.865,0,1,1-104.493-27.51l48.628,27.51,54.276-13.221h.012A55.817,55.817,0,0,1,518.94,135.863Z" fill="#0cbc8b"></path>
    <path d="M517.363,122.642l-54.291,13.221,21.651-51.507A55.928,55.928,0,0,1,517.363,122.642Z" fill="#c1d8ed"></path>
    <g>
      <rect x="301.405" y="97.387" width="74.169" height="12.245" fill="#dee8f5"></rect>
      <rect x="301.405" y="129.689" width="74.169" height="12.245" fill="#dee8f5"></rect>
      <rect x="301.405" y="161.991" width="74.169" height="12.245" fill="#dee8f5"></rect>
    </g>
    <path d="M484.726,84.356l-21.654,51.507-48.628-27.51a55.9,55.9,0,0,1,70.279-24Z" fill="#f3f5fd"></path>
  </g>
  <g>
    <rect x="272.845" y="244.206" width="274.312" height="164.721" fill="#fff"></rect>
    <rect x="300.03" y="306.517" width="27.083" height="76.09" fill="#c1d8ed"></rect>
    <rect x="443.9" y="315.964" width="27.083" height="66.642" fill="#c1d8ed"></rect>
    <rect x="347.987" y="286.385" width="27.083" height="96.221" fill="#c1d8ed"></rect>
    <rect x="395.943" y="329.081" width="27.083" height="53.526" fill="#c1d8ed"></rect>
    <rect x="491.856" y="301.877" width="27.083" height="80.73" fill="#c1d8ed"></rect>
  </g>
  <rect x="575.331" y="54.668" width="234.609" height="355.475" fill="#fff"></rect>
  <g>
    <path d="M692.636,159.374l27.51-48.627a55.872,55.872,0,1,0,24,70.278Z" fill="#0cbc8b"></path>
    <path d="M744.143,181.025l-51.507-21.651,27.51-48.627a55.9,55.9,0,0,1,24,70.278Z" fill="#c1d8ed"></path>
  </g>
  <g>
    <rect x="612.027" y="252.59" width="161.217" height="11.428" fill="#dee8f5"></rect>
    <rect x="612.027" y="285.08" width="161.217" height="11.428" fill="#dee8f5"></rect>
    <rect x="612.027" y="317.569" width="161.217" height="11.428" fill="#dee8f5"></rect>
    <rect x="632.027" y="349.569" width="121.217" height="11.428" fill="#dee8f5"></rect>
  </g>
  <path d="M234,398.79c19.954,87.887,38.014,176.367,52.268,265.367l-20.039,4.123c-22.033-87.4-40.35-175.83-56.719-264.453Z" fill="#E98862"></path>
  <path d="M192.759,404.234c1.841,87.313,1.71,174.82-2.265,262.075H170.029c-3.971-87.253-4.09-174.763-2.264-262.075Z" fill="#E98862"></path>
  <path d="M216.958,674.375a4.108,4.108,0,0,0,4.088-4.128c0-.1,0-.2-.012-.3h0a4.1,4.1,0,0,0-2.659-3.529l-24.442-8.187a3.463,3.463,0,0,0-2.872.319,19.112,19.112,0,0,1-11.468,3.4,17.025,17.025,0,0,1-8.821-3.222,1.546,1.546,0,0,0-2.527,1.2v11.952a2.678,2.678,0,0,0,2.678,2.678h.011Z" fill="#c1d8ed"></path>
  <path d="M310.691,674.375a4.109,4.109,0,0,0,4.089-4.129c0-.1,0-.2-.012-.3h0a4.11,4.11,0,0,0-2.659-3.529l-24.443-8.187a3.463,3.463,0,0,0-2.872.319,19.1,19.1,0,0,1-11.468,3.4,17.022,17.022,0,0,1-8.82-3.222,1.547,1.547,0,0,0-2.528,1.2v11.952a2.678,2.678,0,0,0,2.678,2.678h.011Z" fill="#c1d8ed"></path>
  <path d="M155.085,366.539s-11.359,50.871-11.359,93.653-13.044,109.044-13.044,109.044,36.967-5.98,62.045,0c43.209,10.3,81.951-12.132,81.951-12.132l-43.516-185.87Z" fill="#262626"></path>
  <g>
    <path d="M285.845,263.169s.15-12.01,8.734-11.385c5.417.394,31.151-.8,31.535,1.543.948,5.8-22.592,7.218-24.729,12.623Z" fill="#E98862"></path>
    <path d="M291.54,252.169s11.949-3.9,14.886-3.2c2.6.617-2.82,4.85-2.82,4.85Z" fill="#E98862"></path>
  </g>
  <g>
    <g>
      <path d="M219.488,203.286s7.58,27.159,11.838,41.252a4.467,4.467,0,0,1-4.281,5.759h-26.6a4.472,4.472,0,0,1-4.466-4.259l-1.793-37.807Z" fill="#0f1011"></path>
      <path d="M178.722,263.7s7.737-4.093,6.029-25.151L200.73,235.6s-1.812,18.877,6.265,24.878Z" fill="#E98862"></path>
      <g opacity="0.15">
        <path d="M203.725,256.53l-13.263-10.166,10.424-.1A28.766,28.766,0,0,0,203.725,256.53Z"></path>
      </g>
      <path d="M175.693,230.377c1.1,6.389,4.581,12.442,10.215,14.51a40.49,40.49,0,0,0,19.355,2.633c17.491-1.418,14.067-41.189,5.77-48.921s-32.67-2.862-35.646,10.055C173.848,215.335,174.646,224.3,175.693,230.377Z" fill="#E98862"></path>
      <g>
        <circle cx="200.718" cy="224.029" r="1.449" fill="#0f1011"></circle>
        <circle cx="212.15" cy="223.102" r="1.449" fill="#0f1011"></circle>
        <path d="M214.664,220.017h-.009l-3.839-.052a.681.681,0,1,1,.018-1.361l3.839.051a.681.681,0,0,1-.009,1.362Z" fill="#0f1011"></path>
        <path d="M197.593,221.4a.681.681,0,0,1-.159-1.343l3.786-.908a.681.681,0,0,1,.318,1.325l-3.785.907A.685.685,0,0,1,197.593,221.4Z" fill="#0f1011"></path>
        <path d="M201.378,235.441s5.348.569,9.1-.737c0,0-.033,3.522-4.266,3.866S201.378,235.441,201.378,235.441Z" fill="#fff"></path>
      </g>
      <g opacity="0.15">
        <path d="M207.143,232.072a.5.5,0,0,1-.146-.978l2.947-.9-2.057-4.592a.5.5,0,0,1,.912-.409l2.52,5.626-4.029,1.235A.538.538,0,0,1,207.143,232.072Z"></path>
      </g>
      <path d="M220.4,206.542s-2.561-20.713-35.75-15.626c-8.274,1.268-20,7.728-21.9,28.9-.868,9.712-4.216,18.869-6.77,24.665a4.471,4.471,0,0,0,4.083,6.286l23.33.008a4.465,4.465,0,0,0,4.472-4.456c0-.066,0-.131,0-.2-.168-3.971-.3-10.694-.074-20.97,1.213-5.865-2.018-10,2.672-8.652C207.877,221.494,219.092,206.877,220.4,206.542Z" fill="#0f1011"></path>
      <path d="M193.4,230.268a6.143,6.143,0,0,1-12.246.993,6.041,6.041,0,0,1,5.422-6.6c.068-.007.136-.013.2-.017C191.155,224.5,193.121,226.886,193.4,230.268Z" fill="#E98862"></path>
    </g>
    <path d="M284.835,256.153l-21.547,40.233L231.05,266.229a16.494,16.494,0,0,0-5.919-5.538l-.154-.144-.037.04a26.738,26.738,0,0,0-11.729-2.845c-.63-.03-1.64-.05-2.939-.07-.26,5.5-34.321,5.48-35.04-.13-9.621.01-17.51,2.96-22.081,7.53-15.75,15.75,3.581,42.59,3.581,63.59s-9.5,30.42-8.8,41.2c1.1,16.94,83.429,12.94,87.619,3.31,2.453-5.632.686-10.044-1.227-18.74l19.535-.6-.664-21.8-21.6.659c-.094-2.487-.134-5.149-.1-8.029.1-8.479,1.527-17.892,2.518-26.919l24.912,23.3a10.5,10.5,0,0,0,7.173,2.832,10.639,10.639,0,0,0,1.709-.139,10.5,10.5,0,0,0,7.547-5.4l28-52.279Z" fill="#367CFF"></path>
    <path d="M210.272,257.672c-.259,5.5-3.25,13.59-12.48,14.2-12.3.81-21.84-8.72-22.56-14.33h.031C187.372,257.542,203.211,257.562,210.272,257.672Z" fill="#E98862"></path>
    <g>
      <g>
        <path d="M248.713,280.057l-12.141,50.971a5.4,5.4,0,0,0,5.252,6.65h71.584a5.4,5.4,0,0,0,5.206-3.97l13.991-50.971a5.4,5.4,0,0,0-5.206-6.827H253.964A5.4,5.4,0,0,0,248.713,280.057Z" fill="#9ebcea"></path>
        <path d="M211.087,331.334h86.519a3.172,3.172,0,0,1,3.172,3.172h0a3.172,3.172,0,0,1-3.172,3.172H211.087a3.172,3.172,0,0,1-3.172-3.172h0A3.172,3.172,0,0,1,211.087,331.334Z" fill="#9ebcea"></path>
      </g>
      <circle cx="287.518" cy="306.29" r="8.466" fill="#fff"></circle>
    </g>
    <path d="M271.213,344.368c-4.49,2.77-11.44,4.08-17.5,4.56l-.34-11.04c2.85-.08,7.23-.38,11.52-.21,1.939-1.581,3.055-2.05,5.044-4.04,2.118-2.118,7.676-3.39,8.726,0S275.153,341.928,271.213,344.368Z" fill="#E98862"></path>
  </g>
  <g>
    <path d="M963.959,416.831c-3.838-1.256-7.777.157-11.546,3.02,4.964-12.535,7.013-23.857-1.474-24.367-5.938-.357-10.487,4.2-13.943,10.676-1.215-11.388-4.351-19.882-11.375-17.066-7.711,3.092-8.884,13.687-7.715,24.772-3.4-5.662-7.055-8.819-10.376-5.5-9.912,9.912,14.418,37.847,14.418,37.847h6.042l3.449,3.743c-.7,1.476-1.081,2.355-1.081,2.355l4.38,8.913S979.892,422.045,963.959,416.831Z" fill="#8ddbe0"></path>
    <polygon points="953.129 481.187 918.932 481.187 913.208 441.266 958.854 441.266 953.129 481.187" fill="#c1d8ed"></polygon>
  </g>
  <g>
    <path d="M66.121,638.282s-4.8-177.36-50.835-180.326S53.037,649.782,53.037,649.782" fill="#dee8f5"></path>
    <path d="M68.172,626.16S125.561,498.546,87.351,472.7,51.072,629.46,51.072,629.46" fill="#8ddbe0"></path>
    <rect x="28.585" y="615.168" width="51.597" height="59.394" fill="#0cbc8b"></rect>
  </g>
  <g>
    <g>
      <rect x="849.124" y="637.421" width="17.937" height="37.141" fill="#c1d8ed"></rect>
      <rect x="961.725" y="637.421" width="17.937" height="37.141" fill="#c1d8ed"></rect>
    </g>
    <rect x="832.682" y="480.073" width="163.422" height="182.51" fill="#c1d8ed"></rect>
    <rect x="789.28" y="480.073" width="163.422" height="182.51" fill="#dee8f5"></rect>
    <g>
      <rect x="805.722" y="637.421" width="17.937" height="37.141" fill="#dee8f5"></rect>
      <rect x="918.323" y="637.421" width="17.937" height="37.141" fill="#dee8f5"></rect>
    </g>
    <g opacity="0.53">
      <rect x="798.071" y="491.358" width="145.839" height="46.29" fill="#f3f5fd"></rect>
    </g>
    <g opacity="0.53">
      <rect x="798.071" y="548.977" width="145.839" height="46.29" fill="#f3f5fd"></rect>
    </g>
    <g opacity="0.53">
      <rect x="798.071" y="606.596" width="145.839" height="46.29" fill="#f3f5fd"></rect>
    </g>
    <circle cx="870.99" cy="514.502" r="6.477" fill="#fff"></circle>
    <circle cx="870.99" cy="572.122" r="6.477" fill="#fff"></circle>
    <circle cx="870.99" cy="629.742" r="6.477" fill="#fff"></circle>
  </g>
</svg>